<?xml version="1.0" standalone="no"?>
<!DOCTYPE svg PUBLIC "-//W3C//DTD SVG 20010904//EN"
 "http://www.w3.org/TR/2001/REC-SVG-20010904/DTD/svg10.dtd">
<svg version="1.0" xmlns="http://www.w3.org/2000/svg"
 width="513.000000pt" height="513.000000pt" viewBox="0 0 513.000000 513.000000"
 preserveAspectRatio="xMidYMid meet">
<metadata>
Created by potrace 1.14, written by Peter Selinger 2001-2017
</metadata>
<g transform="translate(0.000000,513.000000) scale(0.100000,-0.100000)"
fill="#000000" stroke="none">
<path d="M2350 5119 c-36 -4 -90 -10 -120 -13 -61 -7 -84 -10 -185 -31 -382
-78 -749 -248 -1065 -493 -108 -85 -337 -312 -424 -422 -206 -261 -373 -585
-460 -895 -73 -255 -96 -446 -91 -745 2 -124 6 -241 10 -260 3 -19 13 -75 21
-125 8 -49 19 -106 24 -125 5 -19 11 -46 14 -60 10 -57 60 -212 102 -318 89
-229 237 -484 394 -678 85 -105 296 -314 395 -391 260 -203 507 -336 805 -433
119 -39 307 -84 395 -95 28 -4 57 -8 65 -10 90 -23 576 -23 660 0 8 2 38 6 65
10 88 11 317 66 420 102 274 95 537 235 735 390 487 381 805 872 944 1456 29
120 40 184 51 302 3 33 8 78 11 100 12 102 3 391 -17 520 -5 39 -12 86 -15
105 -11 73 -66 285 -100 383 -132 382 -327 692 -618 983 -196 196 -379 332
-606 452 -264 140 -598 248 -860 277 -30 3 -73 8 -95 12 -61 8 -381 10 -455 2z
m385 -124 c115 -6 131 -9 278 -36 312 -58 623 -185 892 -364 170 -113 294
-219 444 -377 l44 -47 -29 -28 c-16 -15 -92 -84 -169 -153 -77 -69 -149 -134
-161 -145 -35 -33 -124 -115 -219 -200 -49 -44 -100 -91 -114 -103 -14 -13
-62 -56 -105 -95 -44 -40 -84 -76 -90 -82 -6 -5 -58 -53 -116 -105 -58 -52
-127 -116 -155 -141 -27 -25 -72 -66 -99 -90 -28 -24 -57 -51 -66 -59 -9 -8
-56 -51 -105 -95 -48 -44 -103 -93 -120 -110 -18 -16 -52 -47 -76 -69 -24 -21
-84 -75 -134 -120 -49 -46 -146 -133 -215 -196 -69 -62 -143 -129 -165 -149
-22 -21 -164 -149 -315 -286 -151 -137 -277 -251 -280 -255 -3 -3 -54 -50
-115 -104 -110 -99 -136 -123 -296 -268 -46 -42 -94 -85 -105 -95 -12 -10 -66
-59 -120 -109 -55 -50 -130 -119 -168 -153 l-70 -63 -41 44 c-23 25 -71 82
-107 129 -250 321 -425 723 -484 1109 -3 19 -7 46 -9 60 -11 65 -19 208 -19
330 0 122 11 317 19 330 1 3 6 28 9 55 4 28 23 115 42 195 145 590 515 1112
1029 1452 284 188 667 335 970 373 28 4 61 8 75 11 14 2 77 7 140 11 63 3 116
6 117 7 3 2 100 -2 208 -9z m1842 -1065 c60 -88 148 -239 158 -270 4 -11 2
-26 -3 -33 -8 -11 -23 -37 -109 -197 -24 -45 -283 -519 -428 -785 -18 -33 -47
-87 -65 -120 -48 -89 -97 -179 -150 -275 -26 -47 -63 -114 -82 -150 -20 -36
-105 -193 -191 -350 -85 -157 -168 -310 -185 -340 -16 -30 -54 -100 -84 -155
-30 -55 -74 -136 -98 -180 -23 -44 -46 -84 -50 -90 -4 -5 -30 -54 -59 -108
-96 -181 -392 -722 -399 -729 -23 -22 -419 -24 -562 -2 -19 3 -48 7 -65 10
-59 8 -100 15 -115 19 -8 2 -26 6 -40 9 -218 39 -570 179 -748 297 -24 16 -45
29 -48 29 -15 0 -294 212 -332 253 l-22 23 81 75 c45 41 91 82 103 92 12 10
61 55 110 100 49 45 98 90 110 100 26 23 180 163 261 237 33 31 73 67 88 80
16 14 46 41 66 60 21 19 53 49 72 65 48 43 240 217 259 235 9 8 56 51 105 95
48 44 113 103 144 131 31 28 70 63 86 78 17 15 48 43 70 64 61 56 217 198 244
222 31 26 173 155 217 196 18 17 64 59 102 92 38 34 83 75 99 90 68 63 183
167 329 297 6 6 31 28 55 50 24 23 100 92 169 155 69 62 167 152 219 199 51
47 97 88 101 91 4 3 50 44 101 91 52 48 164 150 249 226 177 161 146 158 237
23z m291 -585 c58 -170 104 -382 119 -552 13 -140 7 -417 -11 -548 -78 -560
-334 -1059 -746 -1450 -252 -240 -532 -411 -870 -530 -98 -35 -281 -85 -311
-85 -13 0 6 42 80 178 54 97 119 218 146 267 26 50 54 99 60 110 7 11 30 54
52 95 35 64 87 160 256 470 16 30 37 69 47 85 10 17 35 64 57 105 22 41 98
181 168 310 70 129 140 258 155 285 15 28 39 70 52 95 14 25 42 77 63 115 21
39 48 88 60 110 12 22 38 69 58 105 19 36 46 85 59 110 14 25 42 77 63 115 45
83 62 115 239 439 75 137 136 252 136 256 0 3 5 11 12 18 15 15 17 12 56 -103z"/>
<path d="M2868 4438 c-57 -51 -110 -99 -119 -106 -14 -10 -42 -6 -164 23 -81
20 -149 34 -152 32 -2 -3 25 -68 61 -145 l64 -141 -75 -122 c-41 -68 -78 -129
-81 -137 -4 -12 9 -13 79 -7 46 3 91 8 99 10 8 2 41 6 72 10 l57 6 103 -120
c119 -139 103 -145 146 57 l27 133 140 59 c76 31 140 61 142 66 1 5 -54 41
-123 79 -69 39 -129 75 -134 80 -8 10 -13 53 -26 225 -3 47 -7 87 -9 88 -2 2
-50 -38 -107 -90z"/>
<path d="M1363 4017 l-32 -65 -67 -7 -66 -7 50 -51 50 -52 -13 -60 c-6 -33
-11 -61 -10 -63 2 -2 29 10 62 26 l58 30 55 -29 c30 -15 58 -28 61 -29 3 0 0
28 -6 63 l-12 62 51 53 c47 49 49 52 26 53 -26 1 -61 6 -95 14 -13 2 -32 27
-50 65 l-30 61 -32 -64z"/>
<path d="M2016 3323 c-30 -67 -46 -80 -105 -87 -30 -4 -57 -9 -60 -12 -3 -3
16 -24 42 -47 32 -29 46 -49 43 -62 -11 -60 -17 -115 -12 -115 3 0 29 13 59
30 l55 30 56 -30 c63 -34 70 -36 63 -16 -3 8 -9 39 -12 68 l-6 53 48 45 48 45
-55 8 c-79 13 -77 11 -107 72 -15 30 -30 55 -34 55 -3 0 -14 -17 -23 -37z"/>
</g>
</svg>
